<svg xmlns="http://www.w3.org/2000/svg" data-name="Layer 1" viewBox="0 0 100 125" x="0px" y="0px"><title>Clock</title><path d="M50,6A44,44,0,1,0,94,50,44.05,44.05,0,0,0,50,6ZM70.64,39.38,51.71,52.47h0l-.09.05a2,2,0,0,1-.38.2l-.15.07-.37.11-.16,0A3.29,3.29,0,0,1,50,53h0a2.82,2.82,0,0,1-.65-.08l-.18-.05a3.34,3.34,0,0,1-.44-.17l-.2-.11a1.85,1.85,0,0,1-.37-.25L48,52.2a4.09,4.09,0,0,1-.39-.44l0,0v0a3.75,3.75,0,0,1-.24-.44s0,0,0-.08a1.87,1.87,0,0,1-.07-.22c0-.12-.08-.23-.11-.34v0A2.67,2.67,0,0,1,47,50h0V17.87a3,3,0,0,1,6,0V44.28l14.23-9.84a3,3,0,0,1,3.41,4.94Z"/><text x="0" y="115" fill="#000000" font-size="5px" font-weight="bold" font-family="'Helvetica Neue', Helvetica, Arial-Unicode, Arial, Sans-serif">Created by Anhar Ismail</text><text x="0" y="120" fill="#000000" font-size="5px" font-weight="bold" font-family="'Helvetica Neue', Helvetica, Arial-Unicode, Arial, Sans-serif">from the Noun Project</text></svg>