<svg xmlns="http://www.w3.org/2000/svg" xmlns:xlink="http://www.w3.org/1999/xlink" version="1.1" x="0px" y="0px" viewBox="0 0 38 75" style="enable-background:new 0 0 38 60;" xml:space="preserve"><g><g><path d="M35,54h-1v-1.279c0-7.181-2.796-13.931-7.874-19.008l-1.005-1.005C24.398,31.984,24,31.022,24,30s0.398-1.984,1.121-2.707    l1.005-1.005C31.204,21.21,34,14.46,34,7.279V6h1c1.654,0,3-1.346,3-3s-1.346-3-3-3H3C1.346,0,0,1.346,0,3s1.346,3,3,3h1v1.279    c0,7.181,2.796,13.931,7.874,19.008l1.005,1.005C13.602,28.016,14,28.978,14,30s-0.398,1.984-1.121,2.707l-1.005,1.005    C6.796,38.79,4,45.54,4,52.721V54H3c-1.654,0-3,1.346-3,3s1.346,3,3,3h32c1.654,0,3-1.346,3-3S36.654,54,35,54z M2,3    c0-0.551,0.449-1,1-1h32c0.551,0,1,0.449,1,1s-0.449,1-1,1h-2H5H3C2.449,4,2,3.551,2,3z M11.129,17.491    c-0.097-0.172-0.14-0.386-0.125-0.583c0,0,0.016-0.215,0.106-0.548c0.347-1.28,1.269-2.271,2.528-2.716    c1.318-0.465,2.789-0.25,3.933,0.579C18.489,14.886,20.804,16,26,16c1.006,0,1.35,0.592,1.451,0.847    c0.442,1.115-0.645,2.297-3.229,4.728c-0.354,0.333-0.677,0.637-0.924,0.884l-1.005,1.006C20.814,24.943,20,26.909,20,29    c0,0.552-0.448,1-1,1s-1-0.448-1-1c0-2.091-0.814-4.057-2.293-5.536l-1.004-1.004C13.148,20.905,12.066,19.153,11.129,17.491z     M18.97,35c-0.552,0-1-0.448-1-1v-1c0-0.552,0.448-1,1-1s1,0.448,1,1v1C19.97,34.552,19.522,35,18.97,35z M19.97,38v1    c0,0.552-0.448,1-1,1s-1-0.448-1-1v-1c0-0.552,0.448-1,1-1S19.97,37.448,19.97,38z M11.125,44.771    c0.203-0.21,0.414-0.428,0.63-0.66C13.01,42.77,14.785,42,16.624,42h4.752c1.839,0,3.614,0.77,4.868,2.111    c0.217,0.232,0.428,0.451,0.631,0.661c1.505,1.56,2.805,2.908,3.056,6.15c0.021,0.278-0.074,0.552-0.263,0.756    C29.478,51.884,29.212,52,28.934,52H9.066c-0.279,0-0.544-0.116-0.734-0.321c-0.189-0.204-0.285-0.479-0.263-0.756    C8.32,47.679,9.62,46.332,11.125,44.771z M35,58H3c-0.551,0-1-0.449-1-1s0.449-1,1-1h2h28h2c0.551,0,1,0.449,1,1S35.551,58,35,58z    "/><path d="M25.436,46.161c-0.21-0.218-0.428-0.444-0.652-0.684C23.906,44.539,22.664,44,21.376,44h-4.752    c-1.288,0-2.53,0.539-3.407,1.478c-0.224,0.24-0.442,0.465-0.652,0.683c-1.213,1.256-2.02,2.093-2.36,3.839h17.591    C27.455,48.254,26.648,47.418,25.436,46.161z"/><path d="M17.121,22.05c0.777,0.777,1.408,1.661,1.879,2.619c0.471-0.958,1.102-1.841,1.878-2.618l1.006-1.006    c0.258-0.259,0.597-0.577,0.968-0.927c0.558-0.525,1.527-1.437,2.146-2.132c-4.813-0.133-7.324-1.221-8.598-2.144    c-0.612-0.443-1.394-0.562-2.093-0.313c-0.364,0.129-1.003,0.468-1.25,1.304c0.935,1.631,1.834,2.985,3.062,4.212L17.121,22.05z"/></g></g><text x="0" y="75" fill="#000000" font-size="5px" font-weight="bold" font-family="'Helvetica Neue', Helvetica, Arial-Unicode, Arial, Sans-serif">Created by Prettycons</text><text x="0" y="80" fill="#000000" font-size="5px" font-weight="bold" font-family="'Helvetica Neue', Helvetica, Arial-Unicode, Arial, Sans-serif">from the Noun Project</text></svg>