<svg width="20" height="20" viewBox="0 0 20 20" fill="none" xmlns="http://www.w3.org/2000/svg">
<path d="M10 0C8.02219 0 6.08879 0.58649 4.4443 1.6853C2.79981 2.78412 1.51809 4.3459 0.761209 6.17316C0.00433288 8.00043 -0.1937 10.0111 0.192152 11.9509C0.578004 13.8907 1.53041 15.6725 2.92894 17.0711C4.32746 18.4696 6.10929 19.422 8.0491 19.8078C9.98891 20.1937 11.9996 19.9957 13.8268 19.2388C15.6541 18.4819 17.2159 17.2002 18.3147 15.5557C19.4135 13.9112 20 11.9778 20 10C19.997 7.34876 18.9425 4.80697 17.0677 2.93225C15.193 1.05754 12.6512 0.00300765 10 0V0ZM14.6909 7.58636L10.3886 10.5614L10.3682 10.5727C10.3411 10.5909 10.3122 10.6062 10.2818 10.6182L10.2477 10.6341L10.1636 10.6591H10.1273C10.0856 10.6703 10.043 10.6779 10 10.6818V10.6818C9.95022 10.6815 9.90064 10.6754 9.85227 10.6636L9.81137 10.6523C9.77716 10.6418 9.74375 10.6289 9.71137 10.6136L9.66591 10.5886C9.63569 10.5732 9.60745 10.5541 9.58182 10.5318L9.54546 10.5C9.51355 10.4688 9.48393 10.4354 9.45682 10.4V10.4C9.43643 10.3679 9.41821 10.3345 9.40227 10.3C9.40227 10.3 9.40227 10.3 9.40227 10.2818C9.39595 10.2655 9.39063 10.2488 9.38637 10.2318C9.38637 10.2045 9.36818 10.1795 9.36137 10.1545C9.34019 10.1052 9.32567 10.0532 9.31818 10V10V2.69773C9.31818 2.5169 9.39002 2.34347 9.51788 2.21561C9.64575 2.08774 9.81917 2.01591 10 2.01591C10.1808 2.01591 10.3543 2.08774 10.4821 2.21561C10.61 2.34347 10.6818 2.5169 10.6818 2.69773V8.7L13.9159 6.46363C14.0648 6.36086 14.2484 6.32145 14.4264 6.35405C14.6043 6.38666 14.762 6.48862 14.8648 6.6375C14.9675 6.78638 15.007 6.96999 14.9744 7.14794C14.9418 7.32589 14.8398 7.48359 14.6909 7.58636V7.58636Z" fill="#343434"/>
</svg>
